<svg height='100px' width='100px'  fill="#000000" xmlns="http://www.w3.org/2000/svg" xmlns:xlink="http://www.w3.org/1999/xlink" version="1.1" x="0px" y="0px" viewBox="0 0 100 100" style="enable-background:new 0 0 100 100;" xml:space="preserve"><g><g><g><path d="M68.4,39c-0.9,0-1.8-0.3-2.5-1L62,34.1c-1.4-1.4-1.4-3.6,0-5l1-1c1.4-1.4,3.6-1.4,5,0l3.9,3.9c0.7,0.7,1,1.5,1,2.5     s-0.4,1.8-1,2.5l-1,1C70.2,38.7,69.3,39,68.4,39z M65.5,28.6c-0.5,0-1,0.2-1.4,0.6l-1,1c-0.8,0.8-0.8,2.1,0,2.9l3.9,3.9     c0.8,0.8,2.1,0.8,2.9,0l1-1c0.4-0.4,0.6-0.9,0.6-1.4s-0.2-1-0.6-1.4l-3.9-3.9C66.5,28.8,66,28.6,65.5,28.6z"></path></g><g><path d="M84.5,23.2c-0.7,0-1.4-0.3-2-0.8l-4.9-4.9c-0.5-0.5-0.8-1.2-0.8-2s0.3-1.5,0.8-2c1.1-1.1,2.9-1.1,4,0l4.9,4.9     c1.1,1.1,1.1,2.9,0,4C86,22.9,85.3,23.2,84.5,23.2z M83.6,21.3c0.5,0.5,1.4,0.5,1.9,0c0.5-0.5,0.5-1.4,0-1.9l-4.9-4.9     c-0.5-0.5-1.4-0.5-1.9,0c-0.3,0.3-0.4,0.6-0.4,0.9s0.1,0.7,0.4,0.9L83.6,21.3z"></path></g><g><path d="M87,19.9L86,18.8l6.9-6.9c1.4-1.4,1.9-3.9,0.9-4.9l-0.8-0.8c-0.5-0.5-1.3-0.6-2.2-0.5c-1,0.2-2,0.7-2.6,1.4L81.2,14     L80.1,13L87,6.1c0.9-0.9,2.2-1.6,3.4-1.8c1.4-0.3,2.7,0.1,3.5,0.9l0.8,0.8c1.7,1.7,1,5.1-0.9,7L87,19.9z"></path></g><g><g><rect x="64.3" y="21.3" transform="matrix(0.7071 -0.7071 0.7071 0.7071 5.6452 57.7973)" width="16.6" height="1.5"></rect></g><g><rect x="69.6" y="26.7" transform="matrix(0.7071 -0.7071 0.7071 0.7071 3.4393 63.1231)" width="16.6" height="1.5"></rect></g></g><g><g><rect x="14.7" y="51.6" transform="matrix(0.7071 -0.7071 0.7071 0.7071 -24.6287 45.2574)" width="55.2" height="1.5"></rect></g><g><rect x="20" y="56.9" transform="matrix(0.7071 -0.7071 0.7071 0.7071 -26.8346 50.5832)" width="55.2" height="1.5"></rect></g></g><g><path d="M21.1,85.9c-0.5,0-1.1-0.2-1.5-0.6l-4.8-4.8c-0.8-0.8-0.8-2.2,0-3l5.8-5.8c0.8-0.8,2.2-0.8,3,0l4.8,4.8     c0.8,0.8,0.8,2.2,0,3l-5.8,5.8C22.2,85.6,21.6,85.9,21.1,85.9z M22.1,72.5c-0.2,0-0.3,0.1-0.4,0.2l-5.8,5.8     c-0.2,0.2-0.2,0.7,0,0.9l4.8,4.8c0.2,0.2,0.7,0.2,0.9,0l5.8-5.8c0.2-0.2,0.2-0.7,0-0.9l-4.8-4.8C22.4,72.6,22.3,72.5,22.1,72.5z"></path></g><g><path d="M12.3,94.8c-0.4,0-0.9-0.2-1.2-0.5l-5.4-5.4c-0.7-0.7-0.7-1.7,0-2.4l2.1-2.1c0.7-0.7,1.7-0.7,2.4,0l5.4,5.4     c0.7,0.7,0.7,1.7,0,2.4l-2.1,2.1C13.1,94.7,12.7,94.8,12.3,94.8z M9,85.4c0,0-0.1,0-0.1,0.1l-2.1,2.1c-0.1,0.1-0.1,0.2,0,0.2     l5.4,5.4c0.1,0.1,0.2,0.1,0.2,0l2.1-2.1c0.1-0.1,0.1-0.2,0-0.2l-5.4-5.4C9.1,85.4,9,85.4,9,85.4z"></path></g><g><rect x="9" y="82.4" transform="matrix(0.8595 -0.5111 0.5111 0.8595 -40.6548 18.3058)" width="8" height="1.5"></rect></g><g><rect x="12.9" y="86.3" transform="matrix(0.5116 -0.8592 0.8592 0.5116 -66.5248 57.0221)" width="8" height="1.5"></rect></g><g><circle cx="58.9" cy="41.1" r="0.7"></circle></g><g><circle cx="52.8" cy="47.2" r="0.7"></circle></g><g><circle cx="46.6" cy="53.4" r="0.7"></circle></g><g><circle cx="40.5" cy="59.5" r="0.7"></circle></g><g><circle cx="34.4" cy="65.6" r="0.7"></circle></g><g><circle cx="28.3" cy="71.7" r="0.7"></circle></g><g><rect x="78.2" y="19.2" transform="matrix(0.7072 -0.707 0.707 0.7072 8.2647 61.997)" width="1.5" height="3.6"></rect></g></g></g></svg>