<svg xmlns="http://www.w3.org/2000/svg" xmlns:xlink="http://www.w3.org/1999/xlink" version="1.1" x="0px" y="0px" viewBox="0 0 128 160" style="enable-background:new 0 0 128 128;" xml:space="preserve"><g><path d="M67,59v42c0,4.486,3.514,8,8,8s8-3.514,8-8V59c0-4.486-3.514-8-8-8S67,54.514,67,59z M69,100v-6h12v6H69z M69,88v-6h12v6   H69z M81,90v2H69v-2H81z M69,80v-2h12v2H69z M69,76v-6h12v6H69z M69,68v-2h12v2H69z M81,59v5H69v-5c0-0.343,0.033-0.675,0.083-1   h11.834C80.967,58.325,81,58.657,81,59z M75,107c-3.078,0-5.467-2.09-5.917-5h11.834C80.467,104.91,78.078,107,75,107z M80.242,56   H69.758c1.007-1.82,2.931-3,5.242-3S79.236,54.18,80.242,56z"/><path d="M125.871,121.144l-0.867-5.203l1.809-37.077C126.927,77.587,127,76.3,127,75c0-11.427-4.138-22.544-11.65-31.302   c-7.116-8.294-17.414-13.405-31.481-15.626C60.289,24.349,28.614,17.593,11,6.508V6c0-2.757-2.243-5-5-5S1,3.243,1,6v64   c0,2.757,2.243,5,5,5s5-2.243,5-5v-0.55c6.081-3.829,14.058-7.317,22.775-10.334C31.935,64.212,31,69.544,31,75   c0,25.916,21.084,47,47,47c15.907,0,30.33-7.724,39.346-19.39l0.65,13.332l-0.867,5.203C115.901,121.52,115,122.651,115,124   c0,1.654,1.346,3,3,3h7c1.654,0,3-1.346,3-3C128,122.651,127.099,121.52,125.871,121.144z M9,70c0,1.654-1.346,3-3,3s-3-1.346-3-3   V6c0-1.654,1.346-3,3-3s3,1.346,3,3V70z M78,120c-24.813,0-45-20.187-45-45c0-5.766,1.095-11.387,3.238-16.719   c2.728-0.903,5.515-1.759,8.327-2.565C41.576,61.33,40,67.599,40,74c0,16.563,10.506,31.36,26.116,36.811   C69.925,112.264,73.923,113,78,113c3.086,0,6.148-0.461,9.109-1.299c0.075-0.017,0.15-0.024,0.219-0.058   c9.313-2.702,17.544-9.286,22.06-18.074L115,94c1.626,0,3-1.374,3-3v-2c0-1.624-1.371-2.997-3.071-2.997c-0.002,0-0.004,0-0.006,0   l-2.804,0.216c0.188-0.792,0.346-1.592,0.473-2.403L115,84c1.626,0,3-1.374,3-3v-2c0-1.624-1.371-2.997-3.071-2.997   c-0.002,0-0.004,0-0.006,0l-2.193,0.169c-0.105-0.786-0.24-1.578-0.407-2.377L115,74c1.626,0,3-1.374,3-3v-2   c0-1.624-1.371-2.997-3.071-2.997c-0.002,0-0.004,0-0.006,0l-5.031,0.387c-6.325-13.619-20.627-21.574-35.042-19.378   C54.251,50.141,26.914,57.513,11,67.096V8.861c18.085,10.874,49.259,17.508,72.556,21.186c13.579,2.145,23.482,7.036,30.276,14.954   C121.034,53.396,125,64.05,125,75c0,1.258-0.071,2.504-0.183,3.74c0,0.002-0.001,0.003-0.001,0.005l-0.001,0.028   c-0.671,7.33-3.27,14.219-7.297,20.194c-0.11,0.106-0.201,0.229-0.253,0.374C108.776,111.67,94.191,120,78,120z M89.871,57.013   c0.038-0.001,0.076-0.002,0.115-0.008c0.005-0.001,0.009-0.004,0.014-0.005C90,57,90,57,90,57c1.654,0,3,1.346,3,3s-1.346,3-3,3   s-3-1.346-3-3C87,58.39,88.277,57.083,89.871,57.013z M95,80c0-2.414-1.721-4.434-4-4.899V73h6v14h-6v-2.101   C93.279,84.434,95,82.414,95,80z M91,89h6v2h-6V89z M99,66c0-0.552,0.448-1,1-1h2.048c0.552,0,1,0.448,1,1v28c0,0.552-0.448,1-1,1   H100c-0.552,0-1-0.448-1-1V66z M97,71h-6v-2h6V71z M90,77c1.654,0,3,1.346,3,3s-1.346,3-3,3s-3-1.346-3-3S88.346,77,90,77z M90,98   c1.654,0,3,1.346,3,3s-1.346,3-3,3s-3-1.346-3-3S88.346,98,90,98z M90.448,105.955C92.992,105.724,95,103.604,95,101   c0-2.414-1.721-4.434-4-4.899V93h6v1c0,1.654,1.346,3,3,3h2.048c1.654,0,3-1.346,3-3v-0.763l2.163,0.166   c-3.906,7.134-10.42,12.656-17.903,15.488C89.793,107.966,90.171,106.985,90.448,105.955z M105.048,91.231v-2.463L115,88   c0.523,0,1,0.477,1,1v2c0,0.523-0.477,1-0.923,1.003L105.048,91.231z M105.048,86.763v-3.526l5.544,0.425   c-0.149,0.92-0.337,1.827-0.569,2.718L105.048,86.763z M105.048,81.231v-2.463l6.841-0.528c0.027-0.001,0.054-0.002,0.082-0.004   c0.004,0,0.007-0.003,0.01-0.003L115,78c0.523,0,1,0.477,1,1v2c0,0.523-0.477,1-0.923,1.003L105.048,81.231z M105.048,76.763   v-3.526l5.197,0.399c0.205,0.905,0.366,1.802,0.488,2.69L105.048,76.763z M105.048,71.231v-2.463L115,68c0.523,0,1,0.477,1,1v2   c0,0.523-0.477,1-0.923,1.003L105.048,71.231z M105.048,66.763V66c0-1.654-1.346-3-3-3H100c-1.654,0-3,1.346-3,3v1h-6v-2.101   c2.279-0.465,4-2.484,4-4.899c0-2.518-1.878-4.587-4.304-4.93c-0.349-1.806-1.02-3.492-1.986-5.005   c8.072,2.546,15.071,8.405,19.05,16.488L105.048,66.763z M85.533,49.247c1.59,1.653,2.672,3.688,3.157,5.95   C86.571,55.776,85,57.699,85,60c0,2.414,1.721,4.434,4,4.899v10.202c-2.279,0.465-4,2.484-4,4.899s1.721,4.434,4,4.899v11.202   c-2.279,0.465-4,2.484-4,4.899c0,2.209,1.449,4.066,3.44,4.726c-0.445,1.511-1.153,2.893-2.122,4.119   C83.61,110.588,80.816,111,78,111c-3.833,0-7.591-0.692-11.197-2.068c-1.695-0.592-3.324-1.305-4.884-2.117   C61.317,105.307,61,103.692,61,102V58c0-2.503,0.657-4.789,1.938-6.808c4.228-0.876,8.34-1.616,12.213-2.204   C78.66,48.457,82.163,48.57,85.533,49.247z M59,80h-3c-0.552,0-1-0.448-1-1s0.448-1,1-1h3V80z M59,76h-3c-1.654,0-3,1.346-3,3   s1.346,3,3,3h3v6h-3c-4.963,0-9-4.037-9-9s4.037-9,9-9h3V76z M59,68h-3c-6.065,0-11,4.935-11,11s4.935,11,11,11h3v2.054   c-3.567,0.241-6.927,1.752-9.49,4.272C44.752,90.039,42,82.252,42,74c0-5.988,1.448-11.857,4.207-17.126   c2.188,5.178,7.095,8.71,12.793,9.083V68z M59,94.054v6.026c-1.524,0.223-2.934,0.948-4.011,2.057   c-1.523-1.301-2.934-2.719-4.22-4.239C52.976,95.659,55.893,94.297,59,94.054z M59.005,102.109c0.008,1.115,0.139,2.2,0.376,3.254   c-0.977-0.612-1.923-1.264-2.832-1.959C57.233,102.748,58.083,102.299,59.005,102.109z M59.144,55.924   c-1.694-0.296-3.123-1.455-3.771-3.044c1.672-0.399,3.337-0.781,4.988-1.141C59.752,53.053,59.343,54.461,59.144,55.924z    M53.424,53.353c0.87,2.429,3.023,4.188,5.579,4.559C59.003,57.941,59,57.97,59,58v5.958c-5.318-0.403-9.812-3.988-11.394-9.094   C49.543,54.335,51.486,53.832,53.424,53.353z M124.258,90.171l-1.257,25.78c-0.003,0.071,0.001,0.143,0.013,0.213L123.82,121   h-4.639l0.806-4.836c0.012-0.07,0.016-0.142,0.013-0.213l-0.778-15.952C121.28,96.933,122.979,93.639,124.258,90.171z M125,125h-7   c-0.552,0-1-0.448-1-1s0.448-1,1-1h7c0.552,0,1,0.448,1,1S125.552,125,125,125z"/></g><text x="0" y="143" fill="#000000" font-size="5px" font-weight="bold" font-family="'Helvetica Neue', Helvetica, Arial-Unicode, Arial, Sans-serif">Created by Amethyst Studio</text><text x="0" y="148" fill="#000000" font-size="5px" font-weight="bold" font-family="'Helvetica Neue', Helvetica, Arial-Unicode, Arial, Sans-serif">from the Noun Project</text></svg>