<svg xmlns="http://www.w3.org/2000/svg" xmlns:xlink="http://www.w3.org/1999/xlink" version="1.1" x="0px" y="0px" viewBox="0 0 128 160" style="enable-background:new 0 0 128 128;" xml:space="preserve"><g><g><g><g><path d="M103.2,126H25.6c-1.1,0-2-0.9-2-2s0.9-2,2-2h77.6c1.1,0,2,0.9,2,2S104.3,126,103.2,126z"/><path d="M75.7,43.5C75.7,43.5,75.6,43.5,75.7,43.5l-22.8,0c-1.1,0-2-0.9-2-2c0-1.1,0.9-2,2-2c0,0,0,0,0,0l22.8,0      c1.1,0,2,0.9,2,2C77.6,42.6,76.8,43.5,75.7,43.5z"/><path d="M63.9,72.8c-1.1,0-2-0.9-2-2l0-39.5c0-1.1,0.9-2,2-2h0c1.1,0,2,0.9,2,2l0,39.5C65.9,71.9,65,72.8,63.9,72.8L63.9,72.8z"/><g><path d="M42.4,125.5c-0.6,0-1.1-0.2-1.5-0.7c-0.7-0.9-0.6-2.1,0.3-2.8l20.8-17.1V87.6c0-1.1,0.9-2,2-2s2,0.9,2,2v18.1       c0,0.6-0.3,1.2-0.7,1.5L43.7,125C43.3,125.3,42.9,125.5,42.4,125.5z"/><path d="M84.7,125.5c-0.5,0-0.9-0.2-1.3-0.5l-20.8-17.7c-0.8-0.7-0.9-2-0.2-2.8c0.7-0.8,2-0.9,2.8-0.2L86,121.9       c0.8,0.7,0.9,2,0.2,2.8C85.8,125.2,85.3,125.5,84.7,125.5z"/></g><path d="M68.6,89.6h-9.3c-1.1,0-2-0.9-2-2V70.8c0-1.1,0.9-2,2-2h9.3c1.1,0,2,0.9,2,2v16.8C70.6,88.7,69.7,89.6,68.6,89.6z       M61.3,85.6h5.3V72.8h-5.3V85.6z"/><path d="M75.3,33.1C75.3,33.1,75.3,33.1,75.3,33.1l-22.4,0c-1.1,0-2-0.9-2-2c0-1.1,0.9-2,2-2c0,0,0,0,0,0l22.4,0      c1.1,0,2,0.9,2,2C77.3,32.2,76.4,33.1,75.3,33.1z"/></g></g><g><path d="M101.7,28.3c-1,0-1.9-0.8-2-1.9l-1.1-14.5c-0.1-1.1,0.7-2.1,1.8-2.1c1.1-0.1,2.1,0.7,2.1,1.8l1.1,14.5     c0.1,1.1-0.7,2.1-1.8,2.1C101.8,28.3,101.7,28.3,101.7,28.3z"/><path d="M101.7,36.9c-3.4,0-6.2-2.8-6.2-6.3s2.8-6.3,6.2-6.3s6.2,2.8,6.2,6.3S105.1,36.9,101.7,36.9z M101.7,28.3     c-1.2,0-2.2,1-2.2,2.3c0,1.3,1,2.3,2.2,2.3c1.2,0,2.2-1,2.2-2.3C103.9,29.3,102.9,28.3,101.7,28.3z"/><path d="M86.7,28.3c0,0-0.1,0-0.1,0c-1.1-0.1-1.9-1-1.8-2.1l1.1-14.5c0.1-1.1,1-1.9,2.1-1.8c1.1,0.1,1.9,1,1.8,2.1l-1.1,14.5     C88.6,27.5,87.7,28.3,86.7,28.3z"/><path d="M86.7,36.9c-3.4,0-6.2-2.8-6.2-6.3s2.8-6.3,6.2-6.3s6.2,2.8,6.2,6.3S90.1,36.9,86.7,36.9z M86.7,28.3     c-1.2,0-2.2,1-2.2,2.3c0,1.3,1,2.3,2.2,2.3s2.2-1,2.2-2.3C88.9,29.3,87.9,28.3,86.7,28.3z"/><path d="M106.1,74.5H83c-2.4,0-4.4-1.7-4.9-4c-2.3-11.2-5-26.3-5-34.4c0-8.4,3.5-23.7,4.7-28.7C78,6.7,78.1,6.2,78.2,6     c0.5-2.3,2.5-4,4.9-4h23c2.4,0,4.4,1.7,4.9,4l0,0c0,0.2,0.2,0.7,0.3,1.4c1.2,5,4.7,20.3,4.7,28.7c0,8-2.7,23.1-5,34.4     C110.5,72.9,108.4,74.5,106.1,74.5z M83,6c-0.5,0-0.9,0.3-1,0.8c0,0.2-0.2,0.8-0.3,1.5c-1.1,4.9-4.6,19.9-4.6,27.8     c0,8.1,3.1,24.5,5,33.6c0.1,0.5,0.5,0.8,1,0.8h23c0.5,0,0.9-0.3,1-0.8c1.8-9.1,5-25.5,5-33.6c0-8-3.5-22.9-4.6-27.8     c-0.2-0.8-0.3-1.3-0.4-1.5c-0.1-0.5-0.5-0.8-1-0.8H83z"/><path d="M109.5,13.9L109.5,13.9l-29.7,0c-1.1,0.1-2.1-0.9-2.1-2c0-0.5,0.2-1,0.6-1.4s0.9-0.6,1.4-0.6l0,0l29.8,0     c0.9,0,1.7,0.6,1.9,1.5c0.1,0.4,0.1,0.9-0.1,1.3C111,13.4,110.3,13.9,109.5,13.9z M111.5,11.9L111.5,11.9L111.5,11.9z"/><path d="M109.5,65.5H79.7c-1.1,0-2-0.9-2-2s0.9-2,2-2h29.8c1.1,0,2,0.9,2,2S110.6,65.5,109.5,65.5z"/></g><g><path d="M40.5,28.3c-1,0-1.9-0.8-2-1.9l-1.1-14.5c-0.1-1.1,0.7-2.1,1.8-2.1c1.1-0.1,2.1,0.7,2.1,1.8l1.1,14.5     c0.1,1.1-0.7,2.1-1.8,2.1C40.6,28.3,40.6,28.3,40.5,28.3z"/><path d="M40.5,36.9c-3.4,0-6.2-2.8-6.2-6.3s2.8-6.3,6.2-6.3s6.2,2.8,6.2,6.3S44,36.9,40.5,36.9z M40.5,28.3c-1.2,0-2.2,1-2.2,2.3     c0,1.3,1,2.3,2.2,2.3s2.2-1,2.2-2.3C42.8,29.3,41.8,28.3,40.5,28.3z"/><path d="M25.6,28.3c0,0-0.1,0-0.1,0c-1.1-0.1-1.9-1-1.8-2.1l1.1-14.5c0.1-1.1,1-1.9,2.1-1.8c1.1,0.1,1.9,1,1.8,2.1l-1.1,14.5     C27.5,27.5,26.6,28.3,25.6,28.3z"/><path d="M25.6,36.9c-3.4,0-6.2-2.8-6.2-6.3s2.8-6.3,6.2-6.3s6.2,2.8,6.2,6.3S29,36.9,25.6,36.9z M25.6,28.3c-1.2,0-2.2,1-2.2,2.3     c0,1.3,1,2.3,2.2,2.3s2.2-1,2.2-2.3C27.8,29.3,26.8,28.3,25.6,28.3z"/><path d="M49.1,66.1H17.8c-1.1,0-2-0.9-2-2s0.9-2,2-2h31.3c1.1,0,2,0.9,2,2S50.2,66.1,49.1,66.1z"/><path d="M45,74.5h-23c-2.4,0-4.4-1.7-4.9-4c-2.3-11.2-5-26.3-5-34.4c0-8.4,3.5-23.7,4.7-28.7C16.9,6.7,17,6.2,17,6     c0.5-2.3,2.5-4,4.9-4h23c2.4,0,4.4,1.7,4.9,4l0,0c0,0.2,0.2,0.7,0.3,1.4c1.2,5,4.7,20.3,4.7,28.7c0,8-2.7,23.1-5,34.4     C49.4,72.9,47.3,74.5,45,74.5z M21.9,6c-0.5,0-0.9,0.3-1,0.8c0,0.2-0.2,0.8-0.3,1.5C19.5,13.3,16,28.2,16,36.2     c0,8.1,3.1,24.5,5,33.6c0.1,0.5,0.5,0.8,1,0.8h23c0.5,0,0.9-0.3,1-0.8c1.9-9.1,5-25.5,5-33.6c0-8-3.5-22.9-4.6-27.8     C46.1,7.6,46,7,45.9,6.8c0,0,0,0,0,0C45.8,6.3,45.4,6,45,6H21.9z"/><path d="M18.5,13.9C18.5,13.9,18.5,13.9,18.5,13.9l-0.2,0c-1.1,0-2-0.9-2-2s0.9-2,2-2h0.1c0,0,0,0,0.1,0l0,0h29.8     c0.3,0,0.5,0.1,0.8,0.2c0,0,0.1,0,0.1,0c0.2,0.1,0.4,0.2,0.5,0.4c0,0,0,0,0,0c0.4,0.4,0.6,0.9,0.6,1.4c0,0,0,0,0,0l0,0     c0,0,0,0.1,0,0.1c0,0.3-0.1,0.5-0.2,0.8c-0.1,0.2-0.2,0.4-0.4,0.5c-0.4,0.4-0.9,0.6-1.4,0.6l0,0H18.5     C18.6,13.9,18.6,13.9,18.5,13.9z"/></g></g></g><text x="0" y="143" fill="#000000" font-size="5px" font-weight="bold" font-family="'Helvetica Neue', Helvetica, Arial-Unicode, Arial, Sans-serif">Created by Shocho</text><text x="0" y="148" fill="#000000" font-size="5px" font-weight="bold" font-family="'Helvetica Neue', Helvetica, Arial-Unicode, Arial, Sans-serif">from the Noun Project</text></svg>