<svg xmlns="http://www.w3.org/2000/svg" xmlns:xlink="http://www.w3.org/1999/xlink" version="1.1" x="0px" y="0px" viewBox="0 0 100 125" enable-background="new 0 0 100 100" xml:space="preserve"><g display="none"><g display="inline"><path d="M18.479,4.729v3.931c-0.517-0.079-0.983-0.113-1.404-0.113c-2.416,0-3.309,1.113-3.309,1.113v88.508h-1.519V7.292    c2.041,0,4.532-1.805,5.624-2.563H18.479 M19.479,3.729h-1h-0.607h-0.313l-0.257,0.179l-0.159,0.11    c-1.058,0.738-3.261,2.274-4.895,2.274h-1v1v90.875v1h1h1.519h1v-1V10.11c0.327-0.218,1.045-0.563,2.309-0.563    c0.393,0,0.814,0.034,1.253,0.101l1.151,0.177V8.659V4.729V3.729L19.479,3.729z"/></g><line display="inline" fill="none" stroke="#000000" stroke-miterlimit="10" x1="18.964" y1="81.998" x2="18.964" y2="6.659"/><path display="inline" fill="none" stroke="#000000" stroke-miterlimit="10" d="M17.515,86.307c0,0.498-0.403,0.899-0.901,0.899   c-0.496,0-0.899-0.401-0.899-0.899c0-0.496,0.403-0.897,0.899-0.897C17.111,85.409,17.515,85.811,17.515,86.307"/><g display="inline"><path d="M18.479,82.002v8.61H14.75v-8.61H18.479 M19.479,81.002h-1H14.75h-1v1v8.61v1h1h3.729h1v-1v-8.61V81.002L19.479,81.002z"/></g></g><g><path d="M29.311,59.352l-1.36-2.355l1.047-0.605l1.359,2.354L29.311,59.352z M17.973,57.912c-1.47,1.369-2.087,2.994-4.141,4.529   c-1.181,0.887-2.758,1.854-4.214,2.74c0.004,0.012,0.009,0.02,0.01,0.031c0.213,0.672,0.566,1.568,0.958,2.48   c0.006,0.012,0.015,0.027,0.017,0.037c1.648-0.879,3.487-1.859,4.981-2.473c2.305-0.947,3.954-0.605,5.967-1.201l0.289-0.086   l-3.624-6.279L17.973,57.912z M35.368,62.189c-4.627,2.674-3.896,3.939-3.621,4.416c0.194,0.336,0.493,0.424,0.783,0.416   c-0.08-0.449,0.122-0.918,0.539-1.162c0.539-0.311,1.228-0.125,1.536,0.414c0.312,0.539,0.129,1.229-0.407,1.541   c-0.059,0.029-0.122,0.037-0.177,0.057l0.01,0.02c-0.784,0.449-2.508,0.9-3.399-0.643c-1.459-2.531,1.417-4.629,4.092-6.174   c3.606-2.08,3.063-3.018,2.86-3.371c-0.034-0.057-0.075-0.102-0.119-0.141c-0.016,0.145-0.093,0.277-0.217,0.375   c-0.09,0.232-0.24,0.443-0.474,0.578c-0.539,0.313-1.229,0.125-1.541-0.412c-0.311-0.541-0.124-1.227,0.414-1.539   c0.049-0.027,0.106-0.033,0.158-0.051l-0.009-0.016c0.663-0.381,1.778-0.59,2.536,0.113l-2.429-4.209l-5.791,3.344l1.359,2.357   l0.644,1.111l-1.117,0.645l-1.047,0.604l-1.116,0.646l-0.644-1.117l-1.359-2.35l-5.369,3.098l1.492,2.588l0.814,1.408l-1.852,0.557   c-0.969,0.287-1.841,0.377-2.683,0.467c-1.036,0.111-2.01,0.217-3.166,0.689c-1.384,0.57-3.147,1.508-4.705,2.338   c-0.085,0.043-0.157,0.082-0.237,0.125c0.176,0.385,0.348,0.76,0.511,1.092l0.236,0.492l-1.147,0.662l-0.999,0.578l-0.016,0.008   c8.759,10.916,20.748,6.744,25.743-0.432c0.248-0.35,1.342-0.779,2.138-0.873c-0.021-0.033-0.075-0.113-0.144-0.238   c-0.621-1.072-2.661-5.283,3.125-8.623l0.469-0.27l-2.098-3.637C39.447,59.557,37.201,61.133,35.368,62.189z M10.348,70.023   c-0.084-0.178-0.178-0.383-0.284-0.613c-0.161-0.348-0.342-0.758-0.524-1.18c-0.338-0.787-0.675-1.629-0.926-2.385   c-0.168-0.506-0.287-0.959-0.332-1.313c-0.019-0.141-0.037-0.283-0.031-0.389c0.04-0.551,0.528-1.119,1.337-2.059   c1.471-1.719,3.699-4.316,3.233-7.34c-0.109-0.711-0.351-1.385-0.71-2.008c-1.298-2.249-3.878-3.355-4.848-3.707   c-0.276,0.388-0.496,0.782-0.717,1.179c-1.572,2.817-1.754,5.846-1.382,8.704c0.611,4.645,3.574,9.928,4.203,10.857   c0.153,0.23,0.294,0.432,0.404,0.584L10.348,70.023z M13.128,52.152c0.432,0.75,0.717,1.563,0.852,2.414   c0.55,3.561-1.989,6.518-3.505,8.281c-0.17,0.199-0.351,0.412-0.517,0.619c1.113-0.689,2.236-1.406,3.104-2.057   c1.065-0.793,1.684-1.611,2.341-2.48c0.498-0.648,1.006-1.318,1.697-1.959l1.424-1.322l0.808,1.4l1.488,2.576l5.37-3.102   l-1.359-2.352l-0.643-1.117l1.114-0.643l1.047-0.605l1.116-0.645l0.646,1.115l1.358,2.354l5.789-3.344l-2.428-4.205   c0.228,1.005-0.511,1.869-1.171,2.251l-0.006-0.014c-0.043,0.037-0.078,0.085-0.128,0.111c-0.537,0.31-1.228,0.13-1.54-0.412   c-0.31-0.539-0.123-1.229,0.412-1.54c0.241-0.139,0.505-0.165,0.759-0.119c0.142-0.053,0.287-0.051,0.418,0.003   c-0.013-0.06-0.03-0.116-0.064-0.18c-0.204-0.351-0.747-1.292-4.351,0.791c-2.676,1.542-5.931,2.99-7.39,0.458   c-0.894-1.543,0.355-2.811,1.143-3.263l0.009,0.018c0.048-0.04,0.082-0.09,0.137-0.124c0.541-0.311,1.229-0.124,1.542,0.415   c0.31,0.538,0.126,1.229-0.413,1.538c-0.418,0.24-0.924,0.178-1.277-0.114c-0.149,0.248-0.22,0.551-0.028,0.884   c0.277,0.479,1.007,1.746,5.633-0.927c1.832-1.058,4.322-2.216,5.703-0.84l-2.094-3.627l-0.469,0.27   c-5.787,3.341-8.417-0.534-9.034-1.605c-0.068-0.121-0.115-0.206-0.132-0.241c-0.482,0.641-1.397,1.377-1.824,1.413   c-4.046,0.342-8.264,2.337-11.139,5.654c0.111,0.038,0.232,0.079,0.395,0.141C9.169,48.501,11.73,49.736,13.128,52.152z    M92.879,21.192l0.154-0.113l-0.988,0.647l-0.228-0.395l-1.185,0.735l1.236,2.142c0.972-0.474,1.123-0.214,1.237-0.016   c0.373,0.642,0.646,2.075-0.349,2.651c-1.004,0.58-2.141-0.387-2.499-1.007c-0.108-0.188-0.265-0.461,0.66-1.082l-1.217-2.111   L87,24.317l1.19,2.061c0.973-0.474,1.123-0.212,1.238-0.015c0.37,0.641,0.646,2.077-0.35,2.651   c-1.006,0.579-2.141-0.389-2.499-1.006c-0.109-0.19-0.266-0.462,0.66-1.084l-1.171-2.03l-2.845,1.764l0.001,0L61.039,39.905   l-1.108,0.66l-15.875,9.477l0.284,0.493l0.36,0.624l15.768-9.41c4.215,9.502,0.397,14.627-6.461,17.084   c-0.45,0.158-1.11,0.736-1.479,1.363c0,0-1.139-1.936-3.785-2.035l0.031,0.055l19.206,33.264l-1.912,1.105l-3.539-6.131   l-4.407,2.543l-4.651-8.053l0.016-0.01L42.153,61.309l-2.098-3.637l-0.613-1.061l-2.429-4.209l-0.645-1.115l-2.428-4.205   l-0.613-1.063l-2.094-3.627L13.88,12.333c-0.001,0-0.003,0-0.003,0l-2.121-3.675l0.554-0.32c1.433,0.122,5.228,0.181,7.136-0.922   l17.252,29.881c1.236-2.342,0.13-4.294,0.13-4.294c0.728-0.006,1.56-0.29,1.924-0.596c5.56-4.717,11.911-5.46,18.036,2.963   l-16.036,8.948l0.271,0.468l0.374,0.648l16.147-9.011l1.122-0.626l22.566-12.593l0.004,0.011l1.933-1.001l-1.21-2.099   c-1.002,0.493-1.157,0.224-1.268,0.032c-0.357-0.619-0.625-2.084,0.376-2.664c0.998-0.576,2.104,0.38,2.473,1.019   c0.113,0.199,0.266,0.463-0.632,1.067l1.232,2.14l2.824-1.462l-1.286-2.23c-1,0.493-1.157,0.22-1.267,0.03   c-0.358-0.619-0.629-2.085,0.376-2.664c0.996-0.577,2.102,0.38,2.471,1.019c0.115,0.2,0.265,0.463-0.633,1.066l1.314,2.274   l2.279-1.181l-0.244-0.425l0.887-0.444l-0.478-0.825l1.654-0.828l0.476,0.823l0.584-0.291l0.036-0.016L95,19.793l-0.578,0.376   l0.491,0.849l-1.547,1.021L92.879,21.192z M57.771,82.787c-0.439,0.252-0.592,0.807-0.338,1.236   c0.246,0.436,0.803,0.584,1.236,0.33c0.43-0.25,0.581-0.805,0.332-1.238C58.754,82.686,58.201,82.539,57.771,82.787z    M46.594,58.852l-5.187-8.984l-0.645-1.116l-5.183-8.977L18.815,10.734c0,0-1.439-0.56-3.697,0.745   c-0.281,0.162-0.579,0.366-0.886,0.591l0.55-0.318l17.103,29.624l1.337-0.772c0.473-0.272,0.875-0.55,1.249-0.829l5.183,8.977   l-2.633,1.52l0.277,0.48l0.366,0.635l2.634-1.519l5.187,8.984c-0.428,0.184-0.868,0.395-1.34,0.666l-1.339,0.773l0.277,0.48   l11.331,19.627l3.465-2L46.594,58.852z M82.542,25.478l-0.643-1.116L42.396,47.168l0.277,0.48l0.367,0.636L82.542,25.478z    M25.947,53.525l1.359,2.355l1.047-0.607l-1.358-2.35L25.947,53.525z"/></g><text x="0" y="115" fill="#000000" font-size="5px" font-weight="bold" font-family="'Helvetica Neue', Helvetica, Arial-Unicode, Arial, Sans-serif">Created by Valter Bispo</text><text x="0" y="120" fill="#000000" font-size="5px" font-weight="bold" font-family="'Helvetica Neue', Helvetica, Arial-Unicode, Arial, Sans-serif">from the Noun Project</text></svg>